<svg width="60" height="60" viewBox="0 0 60 60" fill="none" xmlns="http://www.w3.org/2000/svg">
<path d="M53.6991 32.4153H21.2567V22.2914H23.5575V30.1144H51.3982V13.318H23.5575V16.7693H21.2567V11.0171H53.6991V32.4153Z" fill="#505050"/>
<path d="M56 13.3187H18.9557V6.41602H56V13.3187ZM21.2566 11.0178H53.6991V8.7169H21.2566V11.0178V11.0178Z" fill="#505050"/>
<path d="M53.6991 54.2741H51.3982V49.4423C51.3982 48.9821 51.1682 48.5219 50.9381 48.2918C50.708 48.0617 50.2478 47.8316 49.7876 47.8316H42.4248C41.9646 47.8316 41.7345 48.0617 41.2744 48.2918C41.0443 48.5219 40.8142 48.9821 40.8142 49.4423V54.2741H38.5133V49.4423C38.5133 48.5219 38.9735 47.3715 39.6637 46.6812C40.354 45.9909 41.2744 45.5308 42.4248 45.5308H49.7876C50.708 45.5308 51.8584 45.9909 52.5487 46.6812C53.239 47.3715 53.6991 48.2918 53.6991 49.4423V54.2741Z" fill="#505050"/>
<path d="M46.1062 44.8402C43.3452 44.8402 41.0443 42.5393 41.0443 39.7783C41.0443 37.0172 43.3452 34.7163 46.1062 34.7163C48.8673 34.7163 51.1682 37.0172 51.1682 39.7783C51.1682 42.5393 48.8673 44.8402 46.1062 44.8402ZM46.1062 37.2473C44.7257 37.2473 43.3451 38.3977 43.3451 40.0083C43.3451 41.3888 44.4956 42.7694 46.1062 42.7694C47.4868 42.7694 48.8673 41.6189 48.8673 40.0083C48.8673 38.3977 47.7168 37.2473 46.1062 37.2473Z" fill="#505050"/>
<path d="M36.4425 54.2741H34.1416V49.4423C34.1416 48.9821 33.9115 48.5219 33.6814 48.2918C33.4513 48.0617 32.9912 47.8316 32.531 47.8316H25.1682C24.708 47.8316 24.4779 48.0617 24.0177 48.2918C23.7876 48.5219 23.5575 48.9821 23.5575 49.4423V54.2741H21.2567V49.4423C21.2567 48.5219 21.7168 47.3715 22.4071 46.6812C23.0974 45.9909 24.0177 45.5308 25.1682 45.5308H32.531C33.4513 45.5308 34.6018 45.9909 35.292 46.6812C35.9823 47.3715 36.4425 48.2918 36.4425 49.4423V54.2741V54.2741Z" fill="#505050"/>
<path d="M28.8496 44.6115C26.0885 44.6115 24.0177 42.3106 24.0177 39.7796C24.0177 37.0186 26.3186 34.9478 28.8496 34.9478C31.3805 34.9478 33.6814 37.2487 33.6814 39.7796C33.6814 42.5407 31.6106 44.6115 28.8496 44.6115ZM28.8496 37.0186C27.469 37.0186 26.3186 38.169 26.3186 39.5495C26.3186 40.9301 27.469 42.0805 28.8496 42.0805C30.2301 42.0805 31.3805 40.9301 31.3805 39.5495C31.3805 38.169 30.2301 37.0186 28.8496 37.0186Z" fill="#505050"/>
<path d="M19.1858 54.2741H16.885V49.4423C16.885 48.9821 16.6549 48.752 16.4248 48.2918C16.1947 48.0617 15.7345 47.8316 15.2743 47.8316H7.9115C7.45132 47.8316 7.22123 48.0617 6.76106 48.2918C6.53097 48.5219 6.30089 48.9821 6.30089 49.4423V54.2741H4V49.4423C4 48.5219 4.46018 47.3715 5.15044 46.6812C5.84071 45.9909 6.76106 45.5308 7.9115 45.5308H15.2743C16.1947 45.5308 17.3451 45.9909 18.0354 46.6812C18.7257 47.3715 19.1858 48.2918 19.1858 49.4423V54.2741Z" fill="#505050"/>
<path d="M11.5929 44.8402C8.83182 44.8402 6.53094 42.5393 6.53094 39.7783C6.53094 37.0172 8.83182 34.7163 11.5929 34.7163C14.354 34.7163 16.6548 37.0172 16.6548 39.7783C16.4248 42.5393 14.354 44.8402 11.5929 44.8402ZM11.5929 37.0172C10.2124 37.0172 8.83183 38.1676 8.83183 39.7783C8.83183 41.1588 9.98227 42.5393 11.5929 42.5393C12.9734 42.5393 14.354 41.3889 14.354 39.7783C14.1239 38.3977 12.9734 37.0172 11.5929 37.0172Z" fill="#505050"/>
<path d="M11.5929 15.85C8.83182 15.85 6.53094 13.5491 6.53094 10.788C6.53094 8.02695 8.83182 5.72607 11.5929 5.72607C14.354 5.72607 16.6548 8.02695 16.6548 10.788C16.4248 13.5491 14.354 15.85 11.5929 15.85ZM11.5929 8.02696C10.2124 8.02696 8.83183 9.1774 8.83183 10.788C8.83183 12.1685 9.98227 13.5491 11.5929 13.5491C12.9734 13.5491 14.354 12.3986 14.354 10.788C14.1239 9.40748 12.9734 8.02696 11.5929 8.02696Z" fill="#505050"/>
<path d="M18.2655 31.2662H15.9646V23.4432C15.9646 22.0627 17.1151 21.1423 18.2655 21.1423H27.6991C27.9292 21.1423 27.9292 21.1423 28.1593 20.9122L28.6195 19.3016C28.6195 19.0715 28.6195 19.0715 28.6195 19.0715L28.3894 18.8414H8.1416C7.68142 18.8414 7.45134 19.0715 6.99116 19.3016C6.76107 19.5317 6.53099 19.9919 6.53099 20.452V31.2662H4.2301V20.452C4.2301 19.5317 4.69028 18.3812 5.38055 17.691C6.07081 17.0007 6.99116 16.5405 8.1416 16.5405H28.3894C29.3098 16.5405 30 17.0007 30.4602 17.691C30.9204 18.3812 31.1505 19.3016 30.9204 19.9919L30.4602 21.6025C30.2301 22.7529 29.0797 23.4432 27.9292 23.4432H18.2655V31.2662Z" fill="#505050"/>
</svg>
