<svg width="60" height="60" viewBox="0 0 60 60" fill="none" xmlns="http://www.w3.org/2000/svg">
<path d="M51.7047 55.2401H8.05817V25.8262H51.7047V55.2401ZM10.4303 52.868H49.3326V28.1983H10.4303V52.868Z" fill="#505050"/>
<path d="M55.2628 28.1989H4.5V15.1523H55.5V28.1989H55.2628ZM6.87209 25.8268H53.1279V17.5244H6.87209V25.8268Z" fill="#505050"/>
<path d="M38.6581 17.5241H28.4581L28.9326 16.1009C31.5419 6.37528 36.7605 4.2404 40.5558 4.95203C43.8767 5.90087 46.0116 9.22179 45.3 12.5427C44.3511 15.3892 41.7418 17.5241 38.6581 17.5241ZM31.5418 15.152H38.6581C40.5558 15.152 42.4535 13.966 42.6907 12.0683C43.1651 9.69621 41.7418 7.79854 39.8442 7.32412C37.2349 6.61249 33.6767 8.27296 31.5418 15.152Z" fill="#505050"/>
<path d="M21.1046 17.5242C18.0209 17.5242 15.4116 15.3894 14.7 12.5428C13.9884 9.22191 15.886 5.66378 19.4442 4.95215C23.2395 4.00331 28.4581 6.3754 31.0674 16.101L31.5419 17.5242H21.1046ZM17.0721 12.0684C17.5465 13.7289 19.207 15.1522 21.1046 15.1522H28.2209C25.8488 8.51029 22.2907 6.61262 19.9186 7.32424C18.0209 7.79866 16.5977 9.69634 17.0721 12.0684Z" fill="#505050"/>
<path d="M23.2395 33.1803H20.8674C20.8674 23.692 28.6953 15.6269 28.9326 15.3896L30.593 17.0501C30.593 17.2873 23.2395 24.6408 23.2395 33.1803Z" fill="#505050"/>
<path d="M38.8954 33.1803H36.5233C36.5233 24.6408 29.1698 17.0501 29.1698 17.0501L30.8303 15.3896C31.0675 15.8641 38.8954 23.692 38.8954 33.1803Z" fill="#505050"/>
<path d="M34.6256 55.2407H25.1372V30.8081H27.5093V52.8686H32.2535V30.8081H34.6256V55.2407Z" fill="#505050"/>
</svg>
