<svg width="60" height="60" viewBox="0 0 60 60" fill="none" xmlns="http://www.w3.org/2000/svg">
<path d="M55.2594 22.207H4.5V21.0041C4.5 12.1032 15.8066 4.88623 29.7594 4.88623C43.7123 4.88623 55.0189 12.1032 55.0189 21.0041V22.207H55.2594ZM7.14622 19.8013H52.8538C51.8915 12.8249 42.0283 7.29189 30 7.29189C17.9717 7.05133 8.10849 12.8249 7.14622 19.8013Z" fill="#505050"/>
<path d="M43.7123 21.0042H41.3066C41.3066 12.8249 29.5189 7.05131 29.2783 7.05131L30.2406 4.88623C30.9623 5.1268 43.7123 11.3815 43.7123 21.0042Z" fill="#505050"/>
<path d="M18.4528 21.0042H16.0472C16.0472 11.3815 28.7972 5.1268 29.2783 4.88623L30.2406 7.05131C30.2406 7.05131 18.4528 12.8249 18.4528 21.0042Z" fill="#505050"/>
<path d="M31.2028 5.84961H28.7972V40.9723H31.2028V5.84961Z" fill="#505050"/>
<path d="M55.5 43.6162H5.70284V46.0219H55.5V43.6162Z" fill="#505050"/>
<path d="M50.3659 44.3558L48.2143 45.4316L53.0555 55.1139L55.2071 54.0381L50.3659 44.3558Z" fill="#505050"/>
<path d="M9.57128 44.203L4.72905 53.8853L6.88067 54.9613L11.7229 45.279L9.57128 44.203Z" fill="#505050"/>
<path d="M53.4782 32.7949L38.1741 43.6519L39.566 45.6139L54.8701 34.757L53.4782 32.7949Z" fill="#505050"/>
<path d="M11.4764 28.7022C7.62735 28.7022 4.5 25.5749 4.5 21.7258V19.8013H18.4528V21.7258C18.4528 25.5749 15.3255 28.7022 11.4764 28.7022ZM6.90566 22.2069C7.14623 24.372 9.07075 26.2965 11.4764 26.2965C13.8821 26.2965 15.8066 24.6126 16.0472 22.2069H6.90566Z" fill="#505050"/>
<path d="M24.2264 28.7022H23.2642C19.4151 28.7022 16.2877 25.5749 16.2877 21.7258V19.8013H31.2028V21.7258C31.2028 25.5749 28.0755 28.7022 24.2264 28.7022ZM18.4528 22.2069C18.6934 24.372 20.6179 26.2965 23.0236 26.2965H23.9859C26.3915 26.2965 28.316 24.6126 28.5566 22.2069H18.4528Z" fill="#505050"/>
<path d="M48.283 28.7022C44.434 28.7022 41.3066 25.5749 41.3066 21.7258V19.8013H55.2594V21.7258C55.2594 25.5749 52.1321 28.7022 48.283 28.7022ZM43.7123 22.2069C43.9528 24.372 45.8774 26.2965 48.283 26.2965C50.6887 26.2965 52.6132 24.6126 52.8538 22.2069H43.7123Z" fill="#505050"/>
<path d="M36.7358 28.7022H35.7736C31.9245 28.7022 28.7972 25.5749 28.7972 21.7258V19.8013H43.7123V21.7258C43.7123 25.5749 40.5849 28.7022 36.7358 28.7022ZM31.2028 22.2069C31.4434 24.372 33.3679 26.2965 35.7736 26.2965H36.7358C39.1415 26.2965 41.066 24.6126 41.3066 22.2069H31.2028Z" fill="#505050"/>
</svg>
