<svg width="60" height="60" viewBox="0 0 60 60" fill="none" xmlns="http://www.w3.org/2000/svg">
<path d="M16.8838 52.0272C16.4075 52.0272 15.6931 51.789 15.2168 51.5509C14.2642 51.0746 13.7879 50.3601 13.5497 49.4075C13.3116 48.4549 13.5497 47.5023 14.026 46.5497C15.4549 44.4063 17.122 42.0248 19.0272 39.4052C20.4561 37.5 20.2179 34.6421 18.5509 32.9751C16.1694 30.5936 16.1694 27.0213 18.5509 24.6398L24.2665 18.9242C26.4099 16.7808 30.4584 16.7808 32.6018 18.9242C34.2689 20.5912 37.3648 20.8294 39.0319 19.4005C41.6515 17.4953 44.0331 15.5901 46.1764 14.3993C47.129 13.923 48.0816 13.6849 49.0342 13.923C49.9868 14.1612 50.7013 14.8756 51.1776 15.5901C52.1302 17.2571 51.6539 19.4005 49.9868 20.3531C41.8897 25.3543 33.5544 33.9277 33.3163 33.9277L33.0781 34.1658C32.1255 35.1185 24.2665 42.9774 19.5035 50.5983C19.2653 51.3127 18.0746 52.0272 16.8838 52.0272ZM28.5532 19.4005C27.6006 19.4005 26.648 19.8768 26.1717 20.3531L20.4561 26.0687C19.0272 27.4976 19.0272 29.641 20.4561 31.0699C23.0758 33.6895 23.3139 37.9762 20.9324 40.8341C19.0272 43.2156 17.3601 45.5971 16.1694 47.7404C15.6931 47.9786 15.6931 48.4549 15.6931 48.693C15.6931 48.9312 15.9312 49.1694 16.1694 49.4075C16.6457 49.6457 17.3601 49.6456 17.8364 48.9312C23.0758 40.5959 31.6492 32.0225 31.8874 32.0225C32.6018 31.308 40.9371 22.9727 48.7961 17.9716C49.2724 17.7334 49.5105 17.019 49.2724 16.3045C49.0342 16.0664 48.7961 15.8282 48.5579 15.8282C48.3198 15.8282 47.8435 15.8282 47.6053 16.0664C45.462 17.4953 43.0804 19.1623 40.6989 21.0675C37.8411 23.2109 33.5544 22.9727 30.9347 20.5912C30.4584 19.6386 29.5058 19.4005 28.5532 19.4005Z" fill="#505050"/>
<path d="M45.2238 55.3632C43.3186 55.3632 41.4134 54.8869 39.7463 53.6962C38.0793 52.5054 36.6504 50.8384 35.9359 48.9332L33.7926 44.1701C32.84 42.0268 31.4111 39.8834 29.9821 37.9782L31.8874 36.3112C33.5544 38.2164 34.9833 40.5979 36.1741 42.9794L38.3174 47.7424C39.0319 49.1713 39.9845 50.3621 41.1752 51.3147C43.5567 52.9817 46.8909 52.9817 49.2724 51.3147C51.4157 50.1239 52.6065 47.9805 52.8446 45.599C53.0828 43.2175 52.3683 41.0742 50.7013 39.4071C49.9868 38.6927 49.0342 38.2164 48.0816 37.7401L43.3186 35.5967C40.9371 34.406 38.5556 32.977 36.6504 31.31L38.3174 29.4048C40.2226 31.0718 42.1278 32.2626 44.5093 33.2152L49.2724 35.3586C50.4631 35.8349 51.6539 36.5493 52.6065 37.5019C54.7498 39.6453 55.7024 42.7412 55.4643 45.599C55.2261 48.695 53.3209 51.3147 50.7013 52.9817C49.0342 54.8869 47.129 55.3632 45.2238 55.3632Z" fill="#505050"/>
<path d="M49.0342 49.1696L47.3672 47.5026C47.8435 47.0263 48.0816 46.3118 48.0816 45.8355C48.0816 44.8829 47.8435 44.1685 47.3672 43.454C47.129 43.2159 46.8909 42.9777 46.4146 42.7396L47.3672 40.5962C48.0816 40.8343 48.5579 41.3106 49.0342 41.7869C50.225 42.9777 50.7013 44.4066 50.4631 46.0737C50.4631 46.7881 50.225 47.9789 49.0342 49.1696Z" fill="#505050"/>
<path d="M27.3625 31.7858C26.1717 31.7858 25.2191 31.3095 24.2665 30.595C23.552 29.8806 23.0757 28.6898 23.0757 27.4991C23.0757 26.3083 23.552 25.3557 24.2665 24.4031C25.9336 22.7361 28.7914 22.7361 30.4584 24.4031C31.1729 25.1176 31.6492 26.3083 31.6492 27.4991C31.6492 28.6898 31.1729 29.6424 30.4584 30.595C29.5058 31.3095 28.5532 31.7858 27.3625 31.7858ZM27.3625 25.5939C26.8862 25.5939 26.4099 25.832 25.9336 26.0702C25.4573 26.5465 25.4573 27.0228 25.4573 27.4991C25.4573 27.9754 25.6954 28.4517 25.9336 28.928C26.648 29.6424 27.8388 29.6424 28.5532 28.928C29.0295 28.4517 29.0295 27.9754 29.0295 27.4991C29.0295 27.0228 28.7914 26.5465 28.5532 26.0702C28.3151 25.832 27.8388 25.5939 27.3625 25.5939Z" fill="#505050"/>
<path d="M18.3127 32.2617C14.5023 32.2617 11.1682 30.8328 8.54856 28.2132C5.9289 25.5935 4.5 22.0213 4.5 18.449C4.5 14.8767 5.9289 11.3044 8.54856 8.68479C11.1682 6.06513 14.7405 4.63623 18.3127 4.63623C22.1232 4.63623 25.4573 6.06513 28.0769 8.68479C29.5058 10.1137 30.6966 12.0189 31.411 14.1623L29.2677 14.8767C28.7914 13.2097 27.8388 11.5426 26.4099 10.3519C24.2665 8.2085 21.4087 7.01774 18.3127 7.01774C15.2168 7.01774 12.359 8.2085 10.2156 10.3519C8.07225 12.4952 6.88151 15.353 6.88151 18.449C6.88151 21.545 8.07225 24.4027 10.2156 26.5461C14.7405 31.071 22.1232 31.071 26.648 26.5461C27.3625 25.8317 27.8388 25.1172 28.3151 24.4028L30.4584 25.5935C29.9821 26.5461 29.2677 27.4987 28.3151 28.2132C25.4573 30.8328 22.1232 32.2617 18.3127 32.2617Z" fill="#505050"/>
</svg>
