<svg width="60" height="60" viewBox="0 0 60 60" fill="none" xmlns="http://www.w3.org/2000/svg">
<path d="M26.1141 33.4458H22.7982V31.3733H25.9069V21.6327C25.9069 21.0109 25.6996 20.3892 25.0779 19.7675C24.6634 19.353 24.0416 19.1457 23.4199 19.1457H14.301C13.6793 19.1457 13.0575 19.353 12.4358 19.9747C12.0213 20.3892 11.8141 21.0109 11.8141 21.6327V31.3733H15.13V33.4458H11.6068C10.5706 33.4458 9.74158 32.6168 9.74158 31.5806V21.6327C9.74158 20.3892 10.1561 19.353 10.9851 18.3167C12.0213 17.4877 13.0575 17.0732 14.301 17.0732H23.4199C24.6634 17.0732 25.6996 17.4877 26.7359 18.3167C27.5649 19.1457 27.9793 20.3892 27.9793 21.6327V31.5806C27.9793 32.6168 27.1504 33.4458 26.1141 33.4458Z" fill="#505050"/>
<path d="M16.1662 23.498H14.0938V35.3112H16.1662V23.498Z" fill="#505050"/>
<path d="M23.8344 23.498H21.7619V35.3112H23.8344V23.498Z" fill="#505050"/>
<path d="M18.8605 15.0007C16.1662 15.0007 14.0938 12.9282 14.0938 10.234C14.0938 7.53976 16.1662 5.46729 18.8605 5.46729C21.5547 5.46729 23.6271 7.53976 23.6271 10.234C23.6271 12.9282 21.5547 15.0007 18.8605 15.0007ZM18.8605 7.53976C17.4097 7.53976 16.1662 8.78324 16.1662 10.234C16.1662 11.6847 17.4097 12.9282 18.8605 12.9282C20.3112 12.9282 21.5547 11.6847 21.5547 10.234C21.5547 8.78324 20.3112 7.53976 18.8605 7.53976Z" fill="#505050"/>
<path d="M39.5852 15.8297H36.891C36.4765 15.8297 36.062 15.6224 35.6475 15.4152L33.575 14.1717V10.0268C33.575 7.53978 35.233 5.46731 37.5127 5.05281C38.9635 4.84557 40.4142 5.26006 41.4504 6.08905C42.4867 7.12529 43.1084 8.36877 43.1084 9.8195V14.1717L40.8287 15.4152C40.4142 15.6224 39.9997 15.8297 39.5852 15.8297ZM35.6475 12.9282L36.6837 13.55H36.891H39.5852H39.7925L41.0359 12.9282V9.8195C41.0359 8.99051 40.6214 8.36877 39.9997 7.74703C39.378 7.33254 38.549 7.12529 37.72 7.12529C36.4765 7.33254 35.4403 8.57602 35.4403 10.0268V12.9282H35.6475Z" fill="#505050"/>
<path d="M31.2953 32.6168L29.2228 32.4096L30.6735 22.2544C31.088 19.1457 33.7823 17.0732 36.891 17.0732H39.7924C42.9011 17.0732 45.3881 19.353 46.0099 22.2544L47.2533 30.5443L45.1809 30.7516L43.9374 22.4617C43.7301 20.3892 41.8649 18.9385 39.7924 18.9385H36.891C34.8185 18.9385 33.1605 20.3892 32.746 22.4617L31.2953 32.6168Z" fill="#505050"/>
<path d="M42.2886 26.8949L40.2456 27.2427L41.0106 31.7374L43.0537 31.3896L42.2886 26.8949Z" fill="#505050"/>
<path d="M34.0119 27.0233L33.2597 32.3589L35.3118 32.6482L36.0641 27.3126L34.0119 27.0233Z" fill="#505050"/>
<path d="M33.9895 53.1343H8.91257V51.0618H33.9895C35.233 51.0618 36.4765 50.6473 37.5127 49.6111L49.5331 37.5907C49.9476 37.1762 49.9476 36.3472 49.5331 35.9327C49.1186 35.5182 48.4968 35.5182 48.0823 35.7255L38.7562 42.5646C38.1345 43.1864 37.0982 43.6009 36.062 43.6009H34.404V41.5284H36.062C36.6837 41.5284 37.0982 41.3212 37.5127 40.9067L47.0461 33.8603C48.2896 32.824 50.1548 33.0313 51.191 34.2748C52.4345 35.5182 52.4345 37.5907 51.191 38.8342L38.9634 51.0618C37.72 52.3053 35.8547 53.1343 33.9895 53.1343Z" fill="#505050"/>
<path d="M9.94882 38.8345H7.87634V54.9998H9.94882V38.8345Z" fill="#505050"/>
<path d="M31.7098 45.259H21.9692V43.1865H31.7098C32.746 43.1865 33.3678 42.3575 33.3678 41.5285C33.3678 40.4923 32.5388 39.8705 31.7098 39.8705C31.5025 39.8705 25.0779 40.285 21.7619 39.8705C21.3474 39.8705 20.7257 39.6633 20.3112 39.456C18.8604 39.0415 17.4097 39.456 16.5807 40.0778C16.5807 40.0778 15.5445 41.3213 14.5082 42.3575C13.472 43.3937 12.0213 44.0155 10.5705 44.0155H8.91257V41.943H10.3633C11.1923 41.943 12.2285 41.5285 12.8503 40.9068C13.8865 39.8705 14.9227 38.627 14.9227 38.627C16.1662 37.3836 18.4459 36.7618 20.7257 37.3836C21.1402 37.5908 21.7619 37.5908 21.9692 37.5908C25.2851 38.0053 31.5025 37.5908 31.7098 37.5908C33.7823 37.5908 35.6475 39.2488 35.6475 41.3213C35.4402 43.3937 33.7823 45.259 31.7098 45.259Z" fill="#505050"/>
</svg>
