<svg width="60" height="60" viewBox="0 0 60 60" fill="none" xmlns="http://www.w3.org/2000/svg">
<path d="M57.5 37.2027H55.3175V14.0678H12.7579V11.8853H57.5V37.2027Z" fill="#505050"/>
<path d="M53.1349 41.5679H50.9524V18.433H8.39285V16.2505H53.1349V41.5679Z" fill="#505050"/>
<path d="M48.7698 48.1147H2.5V20.6147H48.5516V48.1147H48.7698ZM4.68254 45.9322H46.369V22.7973H4.68254V45.9322Z" fill="#505050"/>
<path d="M41.131 33.2739H38.9484V35.4565H41.131V33.2739Z" fill="#505050"/>
<path d="M12.7579 33.2739H10.5754V35.4565H12.7579V33.2739Z" fill="#505050"/>
<path d="M47.0238 30.4372L41.5675 27.5999L38.7302 22.1435L40.6945 21.0522L43.3135 25.8538L48.1151 28.4729L47.0238 30.4372Z" fill="#505050"/>
<path d="M4.24602 30.4372L3.15475 28.4729L7.95634 25.8538L10.5754 21.0522L12.5397 22.1435L9.70237 27.5999L4.24602 30.4372Z" fill="#505050"/>
<path d="M10.5754 47.6789L7.95634 42.8773L3.15475 40.2582L4.24602 38.2939L9.70237 41.1312L12.5397 46.5876L10.5754 47.6789Z" fill="#505050"/>
<path d="M40.6945 47.6789L38.7302 46.5876L41.5675 41.1312L47.0238 38.2939L48.1151 40.2582L43.3135 42.8773L40.6945 47.6789Z" fill="#505050"/>
<path d="M25.6349 44.1863C20.1786 44.1863 15.8135 39.8212 15.8135 34.3649C15.8135 28.9085 20.1786 24.5435 25.6349 24.5435C31.0913 24.5435 35.4563 28.9085 35.4563 34.3649C35.4563 39.8212 31.0913 44.1863 25.6349 44.1863ZM25.6349 26.726C21.4881 26.726 17.996 30.2181 17.996 34.3649C17.996 38.5117 21.4881 42.0038 25.6349 42.0038C29.7817 42.0038 33.2738 38.5117 33.2738 34.3649C33.2738 30.2181 29.7817 26.726 25.6349 26.726Z" fill="#505050"/>
<path d="M25.6349 39.1672C24.1071 39.1672 22.7976 37.8576 22.7976 36.3299H24.9801C24.9801 36.7664 25.4167 36.9846 25.6349 36.9846C26.0714 36.9846 26.2897 36.5481 26.2897 36.3299C26.2897 36.1116 25.8532 35.6751 25.6349 35.6751C24.1071 35.6751 22.7976 34.3656 22.7976 32.8378C22.7976 31.31 24.1071 30.0005 25.6349 30.0005C27.1627 30.0005 28.4722 31.31 28.4722 32.8378H26.2897C26.2897 32.4013 25.8532 32.183 25.6349 32.183C25.1984 32.183 24.9801 32.6195 24.9801 32.8378C24.9801 33.056 25.4167 33.4926 25.6349 33.4926C27.1627 33.4926 28.4722 34.8021 28.4722 36.3299C28.4722 37.8576 27.1627 39.1672 25.6349 39.1672Z" fill="#505050"/>
<path d="M26.7262 28.6904H24.5436V30.4365H26.7262V28.6904Z" fill="#505050"/>
<path d="M26.7262 38.0747H24.5436V39.8207H26.7262V38.0747Z" fill="#505050"/>
</svg>
