<svg width="50" height="50" viewBox="0 0 50 50" fill="none" xmlns="http://www.w3.org/2000/svg">
<path d="M30.886 14.6519H18.924C18.5443 14.6519 18.3544 14.3671 18.3544 14.0823V12.3734C18.3544 11.0443 19.3987 10 20.7278 10H29.1772C30.5063 10 31.5506 11.0443 31.5506 12.3734V13.9873C31.5506 14.3671 31.2658 14.6519 30.886 14.6519ZM19.4936 13.4177H30.3164V12.4684C30.3164 11.8038 29.7468 11.3291 29.1772 11.3291H20.7278C20.0633 11.3291 19.5886 11.8987 19.5886 12.4684V13.4177H19.4936Z" fill="white"/>
<path d="M40.4747 40.0002H9.33542C7.91137 40.0002 6.77213 38.8609 6.77213 37.4369V26.0445C6.77213 25.8546 6.86706 25.6647 6.962 25.5698C7.05694 25.4749 7.24681 25.3799 7.43668 25.4749L14.5569 26.804C14.8417 26.8989 15.0316 27.0888 15.0316 27.3736V30.6964H17.2152V28.0382C17.2152 27.8483 17.3101 27.6584 17.405 27.5635C17.5 27.4685 17.6898 27.3736 17.8797 27.4685L24.7152 28.7977L31.5506 27.4685C31.7405 27.4685 31.9304 27.4685 32.0253 27.5635C32.1202 27.6584 32.2152 27.8483 32.2152 28.0382V30.6964H34.3987V27.3736C34.3987 27.0888 34.5886 26.804 34.8734 26.804L41.9936 25.4749C42.1835 25.4749 42.3734 25.4749 42.4683 25.5698C42.5633 25.6647 42.6582 25.8546 42.6582 26.0445V37.5318C42.943 38.8609 41.8038 40.0002 40.4747 40.0002ZM8.10124 26.804V37.5318C8.10124 38.2913 8.67086 38.8609 9.43035 38.8609H40.4747C41.2342 38.8609 41.8038 38.2913 41.8038 37.5318V26.804L35.9177 27.9432V31.3609C35.9177 31.7407 35.6329 31.9306 35.3481 31.9306H31.9304C31.5506 31.9306 31.3607 31.6458 31.3607 31.3609V28.7977L25 29.9369C24.905 29.9369 24.8101 29.9369 24.8101 29.9369L18.5443 28.7977V31.3609C18.5443 31.7407 18.2595 31.9306 17.9747 31.9306H14.5569C14.1772 31.9306 13.9873 31.6458 13.9873 31.3609V27.9432L8.10124 26.804Z" fill="white"/>
<path d="M24.905 29.9367H24.8101L17.8797 28.6076C17.5949 28.5126 17.405 28.3228 17.405 28.0379V25.3797H15.2215V27.3734C15.2215 27.5633 15.1266 27.7531 15.0316 27.8481C14.9367 27.943 14.7468 28.0379 14.5569 27.943L7.43669 26.6139C6.20251 26.424 5.34808 25.3797 5.34808 24.1455V15.886C5.34808 14.462 6.48732 13.3228 7.91137 13.3228H42.0886C43.5126 13.3228 44.6519 14.462 44.6519 15.886V24.1455C44.6519 25.3797 43.7975 26.424 42.5633 26.6139L35.443 27.943C35.2531 27.943 35.0633 27.943 34.9683 27.8481C34.8734 27.7531 34.7785 27.5633 34.7785 27.3734V25.3797H32.5949V28.0379C32.5949 28.3228 32.405 28.6076 32.1202 28.6076L25 29.9367H24.905ZM18.5443 27.4683L24.905 28.7025L31.2658 27.4683V24.7152C31.2658 24.3354 31.5506 24.1455 31.8354 24.1455H35.2531C35.6329 24.1455 35.8228 24.4303 35.8228 24.7152V26.6139L42.1835 25.3797C42.7532 25.2848 43.2278 24.7152 43.2278 24.1455V15.886C43.2278 15.1266 42.6582 14.5569 41.8987 14.5569H7.7215C6.96201 14.5569 6.39239 15.1266 6.39239 15.886V24.1455C6.39239 24.8101 6.86707 25.2848 7.43669 25.3797L13.7975 26.6139V24.7152C13.7975 24.3354 14.0823 24.1455 14.3671 24.1455H17.7848C18.1645 24.1455 18.3544 24.4303 18.3544 24.7152V27.4683H18.5443Z" fill="white"/>
<path d="M24.905 29.9367C24.6202 29.9367 24.3354 29.7468 24.3354 29.462V29.3671C24.3354 29.0823 24.5253 28.7974 24.8101 28.7974L31.7405 27.4683C32.0253 27.3734 32.405 27.6582 32.5 27.943V28.0379C32.5 28.3228 32.3101 28.6076 32.0253 28.6076L25 29.9367H24.905Z" fill="white"/>
<path d="M14.5569 27.943H14.462L7.34175 26.6139C7.05694 26.519 6.86707 26.3291 6.86707 26.0443V25.9494C6.962 25.6646 7.24681 25.3797 7.62656 25.4747L14.7468 26.8038C15.0316 26.8987 15.2215 27.0886 15.2215 27.3734V27.4683C15.1266 27.7532 14.8418 27.943 14.5569 27.943Z" fill="white"/>
<path d="M24.9051 29.9367H24.8101L17.8797 28.6076C17.5949 28.5126 17.4051 28.3228 17.4051 28.0379V27.943C17.5 27.6582 17.7848 27.3734 18.1646 27.4683L25.0949 28.7974C25.3797 28.8924 25.5696 29.0823 25.5696 29.3671V29.462C25.4747 29.7468 25.1899 29.9367 24.9051 29.9367Z" fill="white"/>
<path d="M35.2532 27.943C34.9683 27.943 34.6835 27.7532 34.6835 27.4683V27.3734C34.6835 27.0886 34.8734 26.8038 35.1582 26.8038L42.2785 25.4747C42.5633 25.3797 42.943 25.6646 43.038 25.9494V26.0443C43.038 26.3291 42.8481 26.6139 42.5633 26.6139L35.443 27.943C35.3481 27.943 35.2532 27.943 35.2532 27.943Z" fill="white"/>
<path d="M17.9747 31.8354H14.557C14.1772 31.8354 13.9873 31.5506 13.9873 31.2658V24.7151C13.9873 24.3354 14.2721 24.1455 14.557 24.1455H17.9747C18.3544 24.1455 18.5443 24.4303 18.5443 24.7151V31.2658C18.5443 31.6455 18.2595 31.8354 17.9747 31.8354ZM15.1266 30.6961H17.3101V25.3797H15.1266V30.6961Z" fill="white"/>
</svg>
