<svg width="50" height="50" viewBox="0 0 50 50" fill="none" xmlns="http://www.w3.org/2000/svg">
<path d="M43.0259 40H6.95752C6.61564 40 6.4447 39.7436 6.4447 39.4872V10.5128C6.4447 10.1709 6.70111 10 6.95752 10H43.0259C43.3678 10 43.5387 10.2564 43.5387 10.5128V39.4872C43.6242 39.7436 43.3678 40 43.0259 40ZM7.55581 38.889H42.5131V11.0257H7.55581V38.889Z" fill="white"/>
<path d="M43.0259 16.6667H6.95752C6.61564 16.6667 6.4447 16.4103 6.4447 16.1539V10.5128C6.4447 10.1709 6.70111 10 6.95752 10H43.0259C43.3678 10 43.5387 10.2564 43.5387 10.5128V16.1539C43.6242 16.4103 43.3678 16.6667 43.0259 16.6667ZM7.55581 15.5556H42.5131V11.0257H7.55581V15.5556Z" fill="white"/>
<path d="M9.77805 13.8464C9.69258 13.8464 9.60711 13.8464 9.60711 13.761C9.52164 13.761 9.52164 13.6755 9.43617 13.6755C9.3507 13.59 9.26523 13.4191 9.26523 13.2482V13.1627V13.0771C9.26523 13.0771 9.26523 12.9917 9.3507 12.9917C9.3507 12.9917 9.3507 12.9063 9.43617 12.9063C9.60711 12.7353 9.77805 12.7354 9.94899 12.7354H10.0345C10.0345 12.7354 10.1199 12.7353 10.1199 12.8208L10.2054 12.9063L10.2909 12.9917C10.2909 12.9917 10.2909 13.0771 10.3763 13.0771C10.4618 13.0771 10.3763 13.1627 10.3763 13.1627V13.2482C10.3763 13.4191 10.2909 13.5046 10.2054 13.6755C10.1199 13.761 10.1199 13.761 10.0345 13.761C9.94899 13.8464 9.86352 13.8464 9.77805 13.8464Z" fill="white"/>
<path d="M14.2225 13.8464C14.0516 13.8464 13.9661 13.761 13.7951 13.6755C13.7097 13.59 13.6242 13.4191 13.6242 13.2482V13.1627V13.0771C13.6242 13.0771 13.6242 12.9917 13.7097 12.9917L13.7951 12.9063L13.8806 12.8208C13.8806 12.8208 13.9661 12.8208 13.9661 12.7354H14.0516C14.2225 12.7354 14.3934 12.7353 14.5644 12.9063L14.6498 12.9917C14.6498 12.9917 14.6498 13.0771 14.7353 13.0771V13.1627V13.2482C14.7353 13.4191 14.6498 13.5046 14.5644 13.6755C14.4789 13.761 14.3934 13.8464 14.2225 13.8464Z" fill="white"/>
<path d="M12.0003 13.8464C11.8293 13.8464 11.7439 13.761 11.5729 13.6755C11.4874 13.59 11.402 13.4191 11.402 13.2482V13.1627V13.0771C11.402 13.0771 11.402 12.9917 11.4874 12.9917L11.5729 12.9063L11.6584 12.8208C11.6584 12.8208 11.7439 12.8208 11.7439 12.7354H11.8293C12.0003 12.7354 12.1712 12.7353 12.3421 12.9063L12.4276 12.9917C12.4276 12.9917 12.4276 13.0771 12.5131 13.0771V13.1627V13.2482C12.5131 13.4191 12.4276 13.5046 12.3421 13.6755C12.2567 13.761 12.1712 13.8464 12.0003 13.8464Z" fill="white"/>
<path d="M25.6755 21.2821H11.4874C11.1455 21.2821 10.9746 21.0256 10.9746 20.7691C10.9746 20.4273 11.231 20.2563 11.4874 20.2563H25.7609C26.1028 20.2563 26.2738 20.5127 26.2738 20.7691C26.2738 21.111 26.0174 21.2821 25.6755 21.2821Z" fill="white"/>
<path d="M38.2396 25.8117H11.4874C11.1455 25.8117 10.9746 25.5553 10.9746 25.2989C10.9746 25.0425 11.231 24.7861 11.4874 24.7861H38.2396C38.5815 24.7861 38.7524 25.0425 38.7524 25.2989C38.7524 25.5553 38.496 25.8117 38.2396 25.8117Z" fill="white"/>
<path d="M38.2396 30.2567H11.4874C11.1455 30.2567 10.9746 30.0002 10.9746 29.7438C10.9746 29.4873 11.231 29.231 11.4874 29.231H38.2396C38.5815 29.231 38.7524 29.4873 38.7524 29.7438C38.7524 30.0002 38.496 30.2567 38.2396 30.2567Z" fill="white"/>
<path d="M38.2396 34.7009H20.3763C20.0345 34.7009 19.8635 34.4445 19.8635 34.1881C19.8635 33.8462 20.1199 33.6753 20.3763 33.6753H38.2396C38.5815 33.6753 38.7524 33.9317 38.7524 34.1881C38.7524 34.4445 38.496 34.7009 38.2396 34.7009Z" fill="white"/>
</svg>
