<svg width="50" height="50" viewBox="0 0 50 50" fill="none" xmlns="http://www.w3.org/2000/svg">
<path d="M21.7621 31.0843H11.5325C7.7785 31.0843 4.77521 28.0811 4.77521 24.3271C4.77521 20.573 7.7785 17.5698 11.5325 17.5698H21.7621C22.1375 17.5698 22.3253 17.8514 22.3253 18.1329V30.5212C22.3253 30.8028 22.0437 31.0843 21.7621 31.0843ZM11.5325 18.696C8.43545 18.696 5.99531 21.23 5.99531 24.2332C5.99531 27.3303 8.5293 29.7704 11.5325 29.7704H21.1991V18.6022H11.5325V18.696Z" fill="white"/>
<path d="M40.3446 38.5922C40.2508 38.5922 40.0631 38.5922 39.9692 38.4984L37.9046 36.8091C33.3059 33.1489 27.5809 31.0842 21.7622 31.0842C21.3868 31.0842 21.1991 30.8026 21.1991 30.5211V18.1328C21.1991 17.7574 21.4806 17.5697 21.7622 17.5697C27.5809 17.5697 33.3059 15.505 37.9046 11.8448L39.9692 10.1555C40.1569 9.96779 40.4385 9.9678 40.6262 10.0616C40.8139 10.1555 41.0016 10.3432 41.0016 10.6247V37.9353C41.0016 38.123 40.9078 38.4045 40.6262 38.4984C40.5324 38.5922 40.4385 38.5922 40.3446 38.5922ZM22.3254 29.8641C28.238 29.958 33.9628 32.1165 38.5615 35.7767L39.5938 36.6214V11.9387L38.5615 12.7833C33.9628 16.5373 28.238 18.6021 22.3254 18.6959V29.8641Z" fill="white"/>
<path d="M13.691 40.0002C12.8463 40.0002 12.0016 39.531 11.4385 38.7802C10.9693 38.0294 10.8755 37.0909 11.1571 36.2462L13.691 30.1459C13.7848 29.9582 13.9725 29.7705 14.2541 29.7705H18.6651C18.8528 29.7705 19.0405 29.8644 19.1344 30.0521C19.2282 30.2398 19.2282 30.4275 19.2282 30.6152L16.0372 38.3109C15.7557 39.3433 14.7233 40.0002 13.691 40.0002ZM14.7233 31.0844L12.377 36.8093C12.1893 37.2786 12.2833 37.7478 12.471 38.1232C12.7525 38.4986 13.2217 38.7802 13.691 38.7802C14.2541 38.7802 14.8172 38.4048 15.0049 37.8417L17.8204 30.9906H14.7233V31.0844Z" fill="white"/>
<path d="M40.3446 29.489C39.9692 29.489 39.7816 29.2074 39.7816 28.9259V19.8224C39.7816 19.447 40.0631 19.2593 40.3446 19.2593C43.0663 19.2593 45.2248 21.4178 45.2248 24.1395V24.7026C45.2248 27.2366 42.9725 29.489 40.3446 29.489ZM40.9077 20.3855V28.1751C42.6909 27.8935 44.0048 26.3919 44.0048 24.5149V23.9518C44.0048 22.2625 42.6909 20.667 40.9077 20.3855Z" fill="white"/>
</svg>
