<svg width="181" height="40" viewBox="0 0 181 40" fill="none" xmlns="http://www.w3.org/2000/svg">
<path d="M40.3348 0H0V40H40.3348V0Z" fill="white"/>
<path d="M40.3349 0.666663C29.5252 5.15615 18.7154 9.6456 20.8976 11.9901C22.8652 14.104 35.3952 14.4741 39.8703 33.588C40.0354 34.2931 40.1895 35.0238 40.3349 35.224V36.7729C32.2349 15.3923 15.9588 14.1629 14.4258 11.4081C12.883 8.63552 39.6626 0 39.6626 0H40.3349V0.666663Z" fill="#0029A5"/>
<path d="M13.1128 22.7106C13.1836 22.7191 13.2549 22.6993 13.311 22.6557C13.3671 22.6121 13.4035 22.5481 13.412 22.4779C13.4134 22.4673 13.414 22.4565 13.414 22.4458V0H12.3372C11.5597 4.88746 10.5233 9.77492 10.9077 14.6127C11.116 17.2342 11.7416 19.841 12.3766 22.4476C12.3895 22.5004 12.4183 22.548 12.4592 22.5842C12.5001 22.6203 12.5512 22.6431 12.6056 22.6497L13.1128 22.7106Z" fill="#0029A5"/>
<path fill-rule="evenodd" clip-rule="evenodd" d="M20.0402 30.0525H19.3402L17.7966 31.936L17.6188 30.0525H16.913L17.2287 32.5961L16.6835 34.0812H17.3147L17.8483 32.6359L20.0402 30.0525ZM23.0926 33.2049L23.3623 32.9033L23.4196 32.8293L23.6262 32.5108L23.7984 32.1693L23.85 32.0385L23.9476 31.6914L23.9878 31.367L23.982 31.2362L23.9361 30.9346L23.8271 30.6614L23.764 30.5591L23.5803 30.3314L23.3508 30.1607L23.2648 30.1152L22.9779 30.0184L22.6508 29.9729H22.5303L22.1689 29.9957L21.8074 30.081L21.6983 30.1151L21.3426 30.2745L20.9868 30.485L20.8892 30.5533L20.5622 30.815L20.2753 31.0996L20.1663 31.2361L19.9426 31.5605L19.7705 31.8962L19.7131 32.0385L19.6098 32.3856L19.5639 32.7156L19.5582 32.8181L19.5866 33.1253L19.6785 33.4098L19.7069 33.4667L19.8733 33.7057L20.0857 33.8993L20.2117 33.9789L20.4872 34.0927L20.8028 34.1553L20.9863 34.161L21.3421 34.1327L21.7036 34.0474L21.8929 33.9847L22.2429 33.8254L22.5987 33.6092L22.7823 33.4783L23.0926 33.2049ZM20.4876 33.2391L20.3671 33.0911L20.2638 32.818L20.2466 32.6188L20.2868 32.2887L20.3556 32.0441L20.5221 31.7084L20.6712 31.4921L20.9409 31.1906L21.1646 31.0084L21.5089 30.7923L21.7269 30.7069L22.0826 30.6215L22.2892 30.6101L22.6278 30.6443L22.8171 30.7126L23.0352 30.889L23.1614 31.0711L23.2704 31.3385L23.2934 31.5206L23.2647 31.845L23.2073 32.0328L23.0466 32.3798L22.8286 32.6928L22.5589 32.9773L22.404 33.0968L22.0598 33.313L21.7155 33.4552L21.3597 33.5235L21.2163 33.5292L20.9009 33.4837L20.723 33.4097L20.4876 33.2391ZM26.174 33.8195L26.4265 33.6089L26.6732 33.3074L26.7592 33.1594L26.9028 32.8521L27.006 32.5961L27.9356 30.0525H27.3043L26.3691 32.6075L26.1911 33.0115L25.996 33.293L25.6747 33.4951L25.3707 33.5406L25.0436 33.4724L24.9001 33.3074V33.0513L25.0035 32.6641L25.0264 32.6073L25.9616 30.0523H25.3305L24.3953 32.5959L24.2633 32.9885L24.2231 33.1307L24.2002 33.4664L24.2289 33.6087L24.3723 33.8591L24.5675 34.0184L24.8428 34.1209L25.1871 34.155H25.1929L25.5659 34.1095L25.8413 34.0184L26.174 33.8195ZM29.4503 30.0525H28.8191L27.3387 34.081H27.97L29.066 31.0938L29.898 34.0812H30.489L31.9691 30.0527H31.3496L30.2823 32.9604L29.4503 30.0525ZM32.5602 32.818L32.543 32.6188L32.5832 32.2887L32.6578 32.0441L32.8184 31.7027L32.9676 31.4921L33.243 31.1906L33.4666 31.0084L33.8109 30.7923L34.0232 30.7069L34.3847 30.6215L34.5855 30.6101L34.9241 30.6443L35.1421 30.7297L35.3602 30.9118L35.4749 31.1109H36.2495L36.1864 30.7979L36.0716 30.5362L35.9056 30.32L35.8367 30.2573L35.5958 30.1094L35.3088 30.0126L34.9761 29.9727H34.8727L34.4998 29.9955L34.144 30.0695L34.0063 30.1093L33.6506 30.2629L33.3006 30.4678L33.1801 30.5532L32.8589 30.8148L32.5721 31.1052L32.463 31.236L32.2394 31.5604L32.0673 31.8962L32.0099 32.0384L31.9066 32.3855L31.8607 32.7155L31.855 32.818L31.8894 33.1252L31.9812 33.4097L32.0042 33.4666L32.1705 33.7056L32.3828 33.8992L32.5091 33.9788L32.7845 34.0927L33.1001 34.1552L33.2837 34.1609L33.6452 34.1327L34.0009 34.0587L34.3509 33.9277L34.6952 33.7457L34.9419 33.575L35.2403 33.3303L35.51 33.0515L35.7452 32.7499L35.9518 32.4142L36.1239 32.0557L36.1411 32.0159H34.0119L33.7823 32.6361H35.1364L34.8323 32.949L34.5224 33.1994L34.3332 33.3132L33.9831 33.4612L33.6216 33.5238L33.5183 33.5295L33.1971 33.4839L33.0191 33.4099L32.7839 33.2392L32.6692 33.0912L32.5602 32.818ZM29.3857 35.1371H27.5719L26.3243 38.5383H28.1335L28.3223 38.027H27.0471L27.3924 37.0775H28.6721L28.8517 36.589H27.5719L27.9264 35.6302H29.2016L29.3857 35.1371ZM32.6312 35.1371H32.1111L31.2087 37.5978L30.5044 35.1371H29.9657L28.7182 38.5429H29.2522L30.1776 36.0228L30.8819 38.5429H31.3791L32.6312 35.1371ZM33.3494 36.5387L33.4737 36.3561L33.7039 36.105L33.8972 35.9497L34.1827 35.7717L34.3668 35.6895L34.6661 35.621L34.8456 35.6072L35.1264 35.6392L35.3151 35.7123L35.4947 35.8584L35.596 36.0364H36.2497L36.199 35.7762L36.107 35.557L35.9687 35.3744L35.8996 35.3151L35.7016 35.1917L35.4668 35.1096L35.1906 35.0731L35.0849 35.0685L34.7764 35.0914L34.4818 35.1507L34.3529 35.1873L34.0583 35.3105L33.7682 35.4839L33.6577 35.5615L33.3861 35.7807L33.1467 36.018L33.0455 36.1367L32.8614 36.4061L32.7186 36.6846L32.6681 36.8173L32.5806 37.1049L32.5392 37.3788L32.5346 37.4746L32.5622 37.7302L32.6359 37.9676L32.6635 38.0224L32.8017 38.2233L32.972 38.3831L33.0871 38.4561L33.3173 38.5566L33.5751 38.6022L33.7409 38.6113L34.0446 38.5931L34.3393 38.5292L34.6294 38.4243L34.9102 38.2736L35.1449 38.1185L35.3889 37.9128L35.6145 37.6846L35.8125 37.4335L35.9828 37.1595L36.1301 36.8628L36.1577 36.7989H34.3576L34.1642 37.3194H35.306L35.0574 37.5842L34.7995 37.7896L34.6292 37.8946L34.3392 38.0179L34.04 38.0726L33.9387 38.0772L33.6716 38.0409L33.5197 37.9769L33.3264 37.8354L33.2207 37.7076L33.1331 37.4839L33.1147 37.3058L33.1469 37.0365L33.2114 36.8219L33.3494 36.5387Z" fill="#0029A5"/>
<path fill-rule="evenodd" clip-rule="evenodd" d="M14.5548 30.0525H13.6709L11.4162 33.0797L11.376 30.0525H10.4751L9.00053 34.081H9.60869L10.7965 30.8433L10.8194 34.081H11.2612L13.6826 30.8262L12.4891 34.081H13.0744L14.5548 30.0525ZM9.59722 30.0525H8.96621L8.02518 32.6075L7.84728 33.0115L7.64755 33.2996L7.33086 33.4951L7.03252 33.5406L6.69973 33.4724L6.56204 33.3074L6.55627 33.0513L6.65955 32.6641L6.68249 32.6073L7.61774 30.0523H6.98644L6.05701 32.5959L5.91924 32.9885L5.87906 33.1307L5.85613 33.4664L5.89053 33.6087L6.0283 33.8591L6.22909 34.0184L6.49877 34.1209L6.84876 34.155H6.85449L7.22176 34.1095L7.49717 34.0184L7.82996 33.8193L8.08813 33.6087L8.32914 33.3072L8.42096 33.1592L8.56442 32.8519L8.66201 32.5959L9.59722 30.0525ZM6.44713 30.0525H5.68404L3.4749 32.027L4.20366 30.0525H3.57245L2.09784 34.081H2.72328L3.4405 32.1237L4.21509 34.0812H4.99545L4.14625 32.0498L6.44713 30.0525Z" fill="#0029A5"/>
<path fill-rule="evenodd" clip-rule="evenodd" d="M117.703 9.00781H114.969L108.942 16.3625L108.248 9.00781H105.492L106.724 18.94L104.596 24.7398H107.06L109.144 19.0957L117.703 9.00781ZM129.623 21.3175L130.676 20.14L130.9 19.8511L131.707 18.6068L132.379 17.2736L132.581 16.7627L132.961 15.4073L133.118 14.1405L133.096 13.6295L132.917 12.452L132.491 11.3852L132.244 10.9855L131.527 10.0966L130.631 9.42994L130.295 9.25223L129.175 8.87446L127.897 8.6967H127.427L126.015 8.78542L124.604 9.11883L124.178 9.25215L122.789 9.87429L121.4 10.6964L121.019 10.9632L119.742 11.9851L118.622 13.0963L118.196 13.6294L117.322 14.8959L116.65 16.2072L116.426 16.7626L116.022 18.118L115.843 19.4067L115.821 19.8068L115.933 21.0066L116.292 22.1175L116.404 22.3397L117.053 23.273L117.882 24.0284L118.375 24.3394L119.451 24.784L120.683 25.0284L121.4 25.0505L122.789 24.9396L124.201 24.6062L124.94 24.3617L126.307 23.7396L127.696 22.8951L128.413 22.3842L129.623 21.3175ZM119.451 21.4508L118.98 20.8732L118.577 19.8068L118.51 19.029L118.666 17.74L118.935 16.7848L119.585 15.4739L120.168 14.6294L121.221 13.4516L122.094 12.7406L123.439 11.8965L124.29 11.5631L125.679 11.2297L126.486 11.1851L127.808 11.3186L128.547 11.5852L129.399 12.274L129.892 12.985L130.318 14.0295L130.407 14.7405L130.295 16.007L130.071 16.7403L129.443 18.0957L128.592 19.3176L127.539 20.4287L126.934 20.8952L125.59 21.7396L124.245 22.2951L122.856 22.5618L122.296 22.584L121.064 22.4062L120.369 22.1173L119.451 21.4508ZM141.655 23.7174L142.641 22.8951L143.605 21.7176L143.94 21.1399L144.501 19.9398L144.904 18.9401L148.534 9.00789H146.069L142.417 18.9844L141.722 20.562L140.96 21.6612L139.706 22.4507L138.518 22.6285L137.241 22.3618L136.681 21.7177V20.7176L137.085 19.2066L137.174 18.9845L140.826 9.00793H138.361L134.709 18.9401L134.194 20.4733L134.037 21.0288L133.947 22.3397L134.06 22.8951L134.619 23.8728L135.381 24.495L136.456 24.895L137.801 25.0281H137.823L139.28 24.8505L140.355 24.4949L141.655 23.7174ZM154.449 9.00781H151.984L146.203 24.7398H148.668L152.948 13.0742L156.196 24.7398H158.504L164.285 9.00801H161.865L157.698 20.3625L154.449 9.00781ZM166.593 19.807L166.526 19.0292L166.683 17.7402L166.974 16.7849L167.601 15.4518L168.184 14.6296L169.259 13.4518L170.133 12.7407L171.477 11.8967L172.306 11.5633L173.718 11.2299L174.502 11.1853L175.824 11.3188L176.676 11.6521L177.527 12.3632L177.975 13.1408H181L180.753 11.919L180.305 10.8967L179.655 10.0524L179.386 9.80783L178.446 9.23013L177.325 8.85256L176.026 8.69698H175.622L174.166 8.7857L172.777 9.07467L172.239 9.22997L170.85 9.82989L169.483 10.6298L169.013 10.9634L167.758 11.9852L166.638 13.1184L166.212 13.6294L165.338 14.8959L164.666 16.2072L164.442 16.7626L164.038 18.118L163.859 19.4067L163.837 19.8068L163.971 21.0066L164.33 22.1175L164.419 22.3397L165.069 23.273L165.898 24.0284L166.391 24.3394L167.467 24.784L168.699 25.0284L169.416 25.0505L170.828 24.9396L172.217 24.6507L173.583 24.1393L174.928 23.4286L175.891 22.7618L177.056 21.8066L178.11 20.7178L179.028 19.5403L179.835 18.2293L180.507 16.8294L180.574 16.6739H172.262L171.365 19.096H176.653L175.466 20.3178L174.256 21.2954L173.517 21.74L172.15 22.3178L170.738 22.5622L170.335 22.5844L169.08 22.4066L168.385 22.1177L167.467 21.451L167.019 20.8734L166.593 19.807Z" fill="white"/>
<path fill-rule="evenodd" clip-rule="evenodd" d="M96.283 9.00781H92.8323L84.0269 20.8286L83.87 9.00781H80.3524L74.594 24.7397H76.9688L81.6069 12.0962L81.6964 24.7395H83.4218L92.8771 12.0295L88.2168 24.7397H90.5021L96.283 9.00781ZM76.924 9.00781H74.4596L70.7848 18.9844L70.0904 20.562L69.3102 21.6871L68.0737 22.4506L66.9085 22.6284L65.6091 22.3617L65.0714 21.7174L65.049 20.7173L65.4522 19.2063L65.5417 18.9842L69.1939 9.00764H66.7291L63.0996 18.9398L62.5617 20.473L62.4049 21.0285L62.3152 22.3394L62.4496 22.8949L62.9877 23.8727L63.7717 24.495L64.8249 24.895L66.1914 25.0281H66.214L67.648 24.8505L68.7235 24.4948L70.0231 23.7172L71.0312 22.8949L71.9722 21.7174L72.3308 21.1396L72.8911 19.9395L73.272 18.9398L76.924 9.00781ZM64.6232 9.00781H61.6434L53.0168 16.7181L55.8626 9.00781H53.3979L47.6395 24.7397H50.0819L52.8824 17.0957L55.9072 24.7397H58.9545L55.6385 16.8073L64.6232 9.00781Z" fill="white"/>
<path d="M164.388 32.5051H165.71L167.327 35.3325L168.959 32.5051H170.281L167.908 36.5488V38.8234H166.761V36.5488L164.388 32.5051Z" fill="white"/>
<path d="M171.364 34.8428C171.842 34.369 172.416 34.132 173.084 34.132C173.764 34.132 174.343 34.369 174.821 34.8428C175.299 35.3167 175.537 35.8853 175.537 36.5486C175.537 37.2227 175.298 37.7966 174.821 38.2705C174.343 38.7444 173.764 38.9813 173.084 38.9813C172.416 38.9813 171.842 38.7444 171.364 38.2705C170.886 37.7966 170.647 37.2227 170.648 36.5486C170.648 35.8853 170.886 35.3167 171.364 34.8428ZM172.057 35.5334C171.917 35.663 171.805 35.8203 171.73 35.9952C171.654 36.17 171.617 36.3586 171.619 36.5488C171.617 36.7401 171.655 36.9298 171.73 37.1059C171.806 37.282 171.917 37.4408 172.057 37.5723C172.349 37.8588 172.692 38.0021 173.084 38.002C173.279 38.0042 173.471 37.9673 173.651 37.8934C173.83 37.8196 173.992 37.7103 174.128 37.5723C174.268 37.4408 174.379 37.282 174.454 37.1059C174.53 36.9297 174.568 36.7401 174.566 36.5488C174.568 36.3586 174.53 36.17 174.455 35.9952C174.38 35.8203 174.268 35.6631 174.128 35.5334C173.991 35.3974 173.828 35.29 173.649 35.2175C173.47 35.145 173.278 35.1089 173.084 35.1114C172.893 35.1099 172.704 35.1465 172.528 35.219C172.351 35.2915 172.191 35.3984 172.057 35.5334V35.5334Z" fill="white"/>
<path d="M176.682 38.4127C176.301 38.0232 176.111 37.602 176.111 37.149V34.2899H177.258V36.7857C177.258 37.07 177.38 37.3465 177.626 37.6149C177.871 37.8834 178.168 38.0177 178.516 38.0177C178.864 38.0177 179.16 37.8861 179.406 37.6229C179.651 37.3597 179.774 37.0859 179.774 36.8014V34.29H180.921V38.8234H179.774V38.2231C179.193 38.7393 178.622 38.9973 178.061 38.9971C177.522 38.9971 177.062 38.8023 176.682 38.4127Z" fill="white"/>
<path d="M50.1844 32.5051H52.856C53.4892 32.5051 53.9693 32.6736 54.2965 33.0106C54.6237 33.3476 54.7874 33.7214 54.7876 34.132C54.7876 34.4795 54.5699 34.885 54.1345 35.3483C54.7928 35.8012 55.1219 36.3066 55.122 36.8646C55.122 37.6018 54.8673 38.1126 54.358 38.3969C53.8486 38.6813 53.401 38.8235 53.015 38.8235H50.1844V32.5051ZM51.3311 33.4844V34.9376H52.8655C53.1186 34.9376 53.311 34.8613 53.4429 34.7086C53.57 34.5736 53.6407 34.3957 53.6407 34.211C53.6407 34.0263 53.57 33.8485 53.4429 33.7134C53.311 33.5609 53.1185 33.4846 52.8655 33.4844H51.3311ZM51.3311 35.9169V37.844H52.9877C53.2318 37.844 53.4575 37.7563 53.6646 37.5807C53.8717 37.4052 53.9753 37.1717 53.9752 36.8805C53.9752 36.5896 53.8717 36.3562 53.6646 36.1806C53.4575 36.0049 53.2319 35.917 52.9877 35.9169H51.3311Z" fill="white"/>
<path d="M56.5556 36.9753C56.6297 37.2509 56.7917 37.491 57.0414 37.6954C57.2911 37.8999 57.6123 38.002 58.0051 38.0019C58.3129 38.0019 58.5731 37.9287 58.7855 37.7823C58.998 37.6358 59.1413 37.4984 59.2156 37.3701H60.2828C60.118 37.8329 59.8221 38.2387 59.4306 38.539C59.043 38.8336 58.5678 38.9811 58.0051 38.9813C57.3254 38.9813 56.7466 38.7443 56.2688 38.2704C55.7909 37.7966 55.552 37.2226 55.552 36.5485C55.552 35.8851 55.7909 35.3165 56.2688 34.8428C56.7466 34.369 57.3254 34.1321 58.0051 34.1319C58.5677 34.1319 59.1358 34.3689 59.7094 34.8428C60.2829 35.3166 60.5218 36.0274 60.4261 36.9752L56.5556 36.9753ZM59.3908 35.9959C59.3061 35.7206 59.1179 35.4881 58.8652 35.3467C58.6057 35.1914 58.3081 35.1099 58.005 35.1112C57.6758 35.1112 57.3917 35.1968 57.1529 35.3681C56.9234 35.5282 56.7396 35.7444 56.6193 35.9958L59.3908 35.9959Z" fill="white"/>
<path d="M63.0462 35.3325C62.9347 35.1958 62.7675 35.122 62.5445 35.1114C62.332 35.1114 62.1647 35.1628 62.0428 35.2656C61.9208 35.3684 61.8703 35.4918 61.8915 35.6356C61.9019 35.7385 62.024 35.8413 62.2578 35.9441C62.4915 36.0468 62.7146 36.1341 62.9268 36.206C63.2529 36.3214 63.5678 36.466 63.8675 36.6379C64.1961 36.823 64.3603 37.1261 64.3603 37.5474C64.3603 37.9176 64.1941 38.2491 63.8615 38.542C63.529 38.8349 63.0795 38.9813 62.5129 38.9813C61.8808 38.9813 61.412 38.7918 61.1068 38.4127C60.8015 38.0337 60.6489 37.6862 60.6491 37.3702H61.7958C61.7958 37.5167 61.8611 37.6587 61.9917 37.7959C62.1223 37.9332 62.3183 38.0019 62.5798 38.002C62.8302 38.002 63.0235 37.9404 63.1597 37.8171C63.2958 37.6939 63.353 37.5654 63.3311 37.4316C63.3203 37.3187 63.2523 37.2211 63.127 37.1387C62.9818 37.0471 62.8253 36.9745 62.6614 36.9227C62.3239 36.7892 61.936 36.6324 61.4977 36.4525C61.0593 36.2726 60.8402 35.9565 60.8402 35.5043C60.8402 35.124 61.0076 34.8002 61.3425 34.5329C61.6773 34.2655 62.0897 34.1319 62.5798 34.132C63.2223 34.132 63.6797 34.3347 63.9519 34.7402C64.2241 35.1456 64.3603 35.4852 64.3603 35.759H63.2136C63.2099 35.6018 63.1506 35.4509 63.0462 35.3325V35.3325Z" fill="white"/>
<path d="M66.7017 35.0956V38.8234H65.555V35.0956H64.6312V34.29H65.555V32.5051H66.7017V34.29H67.6255V35.0956H66.7017Z" fill="white"/>
<path d="M74.4176 33.6345C74.231 33.4291 73.9737 33.3265 73.6459 33.3265C73.318 33.3265 73.0635 33.4133 72.8824 33.5871C72.7014 33.7608 72.611 33.9583 72.6111 34.1794C72.6111 34.4953 72.8102 34.7164 73.2084 34.8428C73.6066 34.9692 73.9543 35.0956 74.2516 35.2219C74.6214 35.3895 74.9804 35.5794 75.3268 35.7905C75.6717 36.0013 75.8442 36.4172 75.8444 37.0384C75.8444 37.5334 75.6241 37.9836 75.1834 38.3889C74.7428 38.7942 74.2145 38.9916 73.5986 38.9812C72.8552 38.9812 72.2871 38.7469 71.8943 38.2783C71.5015 37.8097 71.305 37.3385 71.305 36.8646H72.4517C72.4517 37.1912 72.5632 37.4623 72.7862 37.6781C72.8902 37.7824 73.0143 37.8648 73.1511 37.9204C73.288 37.9761 73.4347 38.0038 73.5826 38.0019C73.9542 38.0019 74.2329 37.8944 74.4188 37.6793C74.6047 37.4642 74.6976 37.2515 74.6975 37.0413C74.7014 36.9353 74.6785 36.8302 74.631 36.7352C74.5835 36.6403 74.5127 36.5587 74.4253 36.4978C74.2125 36.3503 73.9812 36.2311 73.7371 36.1434C73.2996 35.9543 72.8114 35.7548 72.2725 35.5449C71.7337 35.3349 71.4642 34.8886 71.4642 34.206C71.4642 33.7231 71.6836 33.2925 72.1224 32.9145C72.5472 32.5416 73.097 32.3394 73.6642 32.3474C74.3197 32.3474 74.8363 32.5422 75.214 32.9318C75.5916 33.3214 75.7965 33.7478 75.8286 34.211H74.6977C74.6976 34.0321 74.6042 33.8399 74.4176 33.6345Z" fill="white"/>
<path d="M76.9593 34.8428C77.4371 34.369 78.0105 34.132 78.6793 34.132C79.3588 34.132 79.9375 34.369 80.4156 34.8428C80.8938 35.3167 81.1327 35.8853 81.1324 36.5486C81.1324 37.2227 80.8935 37.7966 80.4156 38.2705C79.9378 38.7444 79.3591 38.9813 78.6793 38.9813C78.0103 38.9813 77.437 38.7444 76.9593 38.2705C76.4816 37.7966 76.2427 37.2227 76.2426 36.5486C76.2426 35.8853 76.4815 35.3167 76.9593 34.8428ZM77.6522 35.5334C77.5118 35.663 77.4003 35.8203 77.3249 35.9952C77.2495 36.17 77.2117 36.3586 77.2141 36.5488C77.2121 36.7401 77.25 36.9298 77.3254 37.1059C77.4008 37.282 77.512 37.4408 77.6522 37.5723C77.9441 37.8588 78.2865 38.0021 78.6795 38.002C78.8737 38.0042 79.0663 37.9673 79.2456 37.8934C79.425 37.8196 79.5873 37.7103 79.7227 37.5723C79.8629 37.4408 79.9741 37.282 80.0495 37.1059C80.1248 36.9297 80.1628 36.7401 80.1608 36.5488C80.1632 36.3586 80.1254 36.17 80.05 35.9952C79.9745 35.8203 79.8631 35.6631 79.7227 35.5334C79.5862 35.3974 79.4235 35.29 79.2443 35.2175C79.0651 35.145 78.873 35.1089 78.6795 35.1114C78.4885 35.1099 78.2991 35.1465 78.1227 35.219C77.9462 35.2915 77.7862 35.3984 77.6522 35.5334V35.5334Z" fill="white"/>
<path d="M82.8526 38.8234H81.7059V32.5051H82.8526V38.8234Z" fill="white"/>
<path d="M84.2359 38.4127C83.8551 38.0232 83.6648 37.602 83.665 37.149V34.2899H84.8117V36.7857C84.8117 37.07 84.9344 37.3465 85.18 37.6149C85.4255 37.8834 85.7222 38.0177 86.07 38.0177C86.4177 38.0177 86.7143 37.8861 86.96 37.6229C87.2056 37.3597 87.3283 37.0859 87.3283 36.8014V34.29H88.475V38.8234H87.3283V38.2231C86.7467 38.7393 86.1758 38.9973 85.6155 38.9971C85.0763 38.9971 84.6164 38.8023 84.2359 38.4127Z" fill="white"/>
<path d="M91.0874 35.0956V38.8234H89.9407V35.0956H89.0168V34.29H89.9407V32.5051H91.0874V34.29H92.0112V35.0956H91.0874Z" fill="white"/>
<path d="M92.5209 33.4844V32.5051H93.6676V33.4844H92.5209ZM92.5209 38.8235V34.4482H93.6676V38.8235H92.5209Z" fill="white"/>
<path d="M95.0217 34.8428C95.4995 34.369 96.0729 34.132 96.7419 34.132C97.4213 34.132 98 34.369 98.478 34.8428C98.956 35.3167 99.195 35.8853 99.1948 36.5486C99.1948 37.2227 98.9559 37.7966 98.478 38.2705C98.0002 38.7444 97.4214 38.9813 96.7417 38.9813C96.0727 38.9813 95.4992 38.7444 95.0214 38.2705C94.5437 37.7966 94.3047 37.2227 94.3047 36.5486C94.3048 35.8853 94.5438 35.3167 95.0217 34.8428ZM95.7146 35.5334C95.5742 35.663 95.4627 35.8203 95.3873 35.9952C95.3118 36.17 95.2741 36.3586 95.2765 36.5488C95.2745 36.7401 95.3124 36.9298 95.3878 37.1059C95.4631 37.282 95.5744 37.4408 95.7146 37.5723C96.0065 37.8588 96.3489 38.0021 96.7419 38.002C96.9361 38.0042 97.1287 37.9673 97.3081 37.8934C97.4874 37.8196 97.6497 37.7103 97.7852 37.5723C97.9253 37.4407 98.0365 37.282 98.1118 37.1058C98.1872 36.9297 98.2251 36.7401 98.2232 36.5488C98.2255 36.3586 98.1878 36.1701 98.1123 35.9952C98.0369 35.8204 97.9255 35.6631 97.7852 35.5334C97.6486 35.3974 97.4858 35.29 97.3066 35.2175C97.1273 35.145 96.9353 35.109 96.7417 35.1115C96.5507 35.11 96.3614 35.1466 96.1849 35.2191C96.0085 35.2916 95.8485 35.3985 95.7145 35.5334H95.7146Z" fill="white"/>
<path d="M103.989 34.7163C104.371 35.1061 104.562 35.5221 104.562 35.9642V38.8233H103.416V36.3383C103.416 36.0552 103.293 35.7799 103.047 35.5125C102.802 35.245 102.505 35.1113 102.157 35.1114C101.809 35.1114 101.513 35.2451 101.267 35.5125C101.022 35.7798 100.899 36.0551 100.899 36.3383V38.8234H99.7524V34.29H100.899V34.8902C101.483 34.3848 102.051 34.1321 102.603 34.1321C102.863 34.1285 103.12 34.1786 103.358 34.2792C103.597 34.3798 103.812 34.5287 103.989 34.7163V34.7163Z" fill="white"/>
<path d="M112.964 33.0523C113.373 33.417 113.577 33.8902 113.578 34.4717C113.578 35.0429 113.376 35.5081 112.972 35.8674C112.569 36.2268 112.118 36.4065 111.619 36.4067H109.835V38.8235H108.688V32.5051H111.619C112.107 32.5051 112.555 32.6875 112.964 33.0523ZM109.835 33.4844V35.4273H111.449C111.692 35.4273 111.916 35.3378 112.122 35.1587C112.222 35.0731 112.302 34.9662 112.356 34.8459C112.409 34.7257 112.435 34.5951 112.431 34.4637C112.431 34.1584 112.328 33.9189 112.122 33.745C111.937 33.5795 111.698 33.4867 111.449 33.4844H109.835Z" fill="white"/>
<path d="M115.401 34.6849C115.502 34.5585 115.659 34.4374 115.871 34.3216C116.147 34.1742 116.498 34.1321 116.923 34.1953V35.0324C116.466 35.0008 116.126 35.0482 115.903 35.1746C115.638 35.3221 115.457 35.5117 115.362 35.7431C115.266 35.9746 115.218 36.1326 115.218 36.217V38.8233H114.072V34.29H115.218V34.9376C115.273 34.8487 115.334 34.7642 115.401 34.6849V34.6849Z" fill="white"/>
<path d="M118.053 34.8428C118.531 34.369 119.105 34.132 119.773 34.132C120.453 34.132 121.032 34.369 121.51 34.8428C121.988 35.3167 122.227 35.8853 122.226 36.5486C122.226 37.2227 121.987 37.7966 121.51 38.2705C121.032 38.7444 120.453 38.9813 119.773 38.9813C119.104 38.9813 118.531 38.7444 118.053 38.2705C117.576 37.7966 117.337 37.2227 117.337 36.5486C117.337 35.8853 117.576 35.3167 118.053 34.8428ZM118.746 35.5334C118.606 35.663 118.494 35.8203 118.419 35.9952C118.343 36.17 118.306 36.3586 118.308 36.5488C118.306 36.7401 118.344 36.9298 118.419 37.1059C118.495 37.282 118.606 37.4408 118.746 37.5723C119.038 37.8588 119.381 38.0021 119.774 38.002C119.968 38.0042 120.16 37.9673 120.34 37.8934C120.519 37.8196 120.681 37.7103 120.817 37.5723C120.957 37.4408 121.068 37.282 121.143 37.1058C121.219 36.9297 121.257 36.7401 121.255 36.5488C121.257 36.3586 121.219 36.17 121.144 35.9952C121.069 35.8203 120.957 35.6631 120.817 35.5334C120.68 35.3974 120.518 35.29 120.338 35.2175C120.159 35.145 119.967 35.1089 119.774 35.1114C119.583 35.1099 119.393 35.1466 119.217 35.2191C119.04 35.2916 118.88 35.3985 118.746 35.5334H118.746Z" fill="white"/>
<path d="M122.482 34.29H123.66L124.934 37.4965L126.209 34.29H127.372L125.444 38.8234H124.409L122.482 34.29Z" fill="white"/>
<path d="M127.785 33.4844V32.5051H128.932V33.4844H127.785ZM127.785 38.8235V34.4482H128.932V38.8235H127.785Z" fill="white"/>
<path d="M133.567 38.1916C133.326 38.4561 133.026 38.6616 132.691 38.7918C132.362 38.9181 132.054 38.976 131.767 38.9655C131.215 38.9549 130.697 38.7206 130.214 38.2626C129.731 37.8046 129.49 37.2333 129.49 36.5488C129.49 35.8644 129.731 35.2931 130.214 34.8349C130.698 34.3768 131.221 34.1477 131.783 34.1478C132.084 34.152 132.382 34.2026 132.667 34.2979C132.98 34.3981 133.28 34.6166 133.567 34.9534V32.5051H134.714V38.8234H133.567V38.1916ZM131.068 37.6782C131.202 37.8156 131.363 37.9248 131.541 37.9995C131.718 38.0741 131.909 38.1125 132.102 38.1125C132.295 38.1125 132.485 38.0741 132.663 37.9995C132.84 37.9248 133.001 37.8156 133.135 37.6782C133.276 37.5387 133.387 37.3723 133.461 37.189C133.536 37.0057 133.572 36.8094 133.567 36.612C133.571 36.417 133.534 36.2234 133.46 36.0428C133.386 35.8623 133.275 35.6985 133.135 35.5615C133.001 35.4241 132.841 35.3149 132.663 35.2402C132.485 35.1656 132.295 35.1272 132.102 35.1272C131.909 35.1272 131.718 35.1656 131.541 35.2402C131.363 35.3149 131.202 35.4241 131.068 35.5615C130.928 35.6985 130.818 35.8623 130.744 36.0428C130.67 36.2234 130.633 36.417 130.637 36.612C130.632 36.8094 130.668 37.0057 130.742 37.189C130.816 37.3722 130.927 37.5387 131.068 37.6782V37.6782Z" fill="white"/>
<path d="M136.418 36.9753C136.492 37.2509 136.654 37.491 136.904 37.6954C137.154 37.8999 137.475 38.002 137.868 38.0019C138.176 38.0019 138.436 37.9287 138.648 37.7823C138.861 37.6358 139.004 37.4984 139.078 37.3701H140.146C139.981 37.8329 139.685 38.2387 139.293 38.539C138.906 38.8336 138.431 38.9811 137.868 38.9813C137.188 38.9813 136.609 38.7443 136.132 38.2704C135.654 37.7966 135.415 37.2226 135.415 36.5485C135.415 35.8851 135.654 35.3165 136.132 34.8428C136.609 34.369 137.188 34.1321 137.868 34.1319C138.431 34.1319 138.999 34.3689 139.572 34.8428C140.146 35.3166 140.385 36.0274 140.289 36.9752L136.418 36.9753ZM139.253 35.9959C139.169 35.7206 138.981 35.4881 138.728 35.3467C138.468 35.1914 138.171 35.1099 137.868 35.1112C137.538 35.1112 137.254 35.1968 137.016 35.3681C136.786 35.5282 136.602 35.7444 136.482 35.9958L139.253 35.9959Z" fill="white"/>
<path d="M142.113 34.6849C142.213 34.5585 142.37 34.4374 142.582 34.3216C142.858 34.1742 143.209 34.1321 143.634 34.1953V35.0324C143.177 35.0008 142.837 35.0482 142.614 35.1746C142.349 35.3221 142.168 35.5117 142.073 35.7431C141.977 35.9746 141.93 36.1326 141.929 36.217V38.8233H140.783V34.29H141.929V34.9376C141.984 34.8487 142.045 34.7642 142.113 34.6849V34.6849Z" fill="white"/>
<path d="M147.456 32.5051H152.028V33.4844H148.603V35.0168H151.948V35.9961H148.603V38.8236H147.457L147.456 32.5051Z" fill="white"/>
<path d="M153.334 34.8428C153.812 34.369 154.385 34.132 155.054 34.132C155.733 34.132 156.312 34.369 156.79 34.8428C157.268 35.3167 157.507 35.8853 157.507 36.5486C157.507 37.2227 157.268 37.7966 156.79 38.2705C156.312 38.7444 155.734 38.9813 155.054 38.9813C154.385 38.9813 153.812 38.7444 153.334 38.2705C152.856 37.7966 152.617 37.2227 152.617 36.5486C152.617 35.8853 152.856 35.3167 153.334 34.8428ZM154.027 35.5334C153.886 35.663 153.775 35.8203 153.699 35.9952C153.624 36.17 153.586 36.3586 153.589 36.5488C153.587 36.7401 153.625 36.9298 153.7 37.1059C153.775 37.282 153.887 37.4408 154.027 37.5723C154.319 37.8588 154.661 38.0021 155.054 38.002C155.248 38.0042 155.441 37.9673 155.62 37.8934C155.8 37.8196 155.962 37.7103 156.097 37.5723C156.237 37.4408 156.349 37.282 156.424 37.1059C156.499 36.9297 156.537 36.7401 156.535 36.5488C156.538 36.3586 156.5 36.17 156.425 35.9952C156.349 35.8203 156.238 35.6631 156.097 35.5334C155.961 35.3974 155.798 35.29 155.619 35.2175C155.44 35.145 155.248 35.1089 155.054 35.1114C154.863 35.1099 154.674 35.1465 154.497 35.219C154.321 35.2915 154.161 35.3984 154.027 35.5334V35.5334Z" fill="white"/>
<path d="M159.41 34.6849C159.511 34.5585 159.668 34.4374 159.88 34.3216C160.156 34.1742 160.507 34.1321 160.931 34.1953V35.0324C160.475 35.0008 160.135 35.0482 159.912 35.1746C159.646 35.3221 159.466 35.5117 159.371 35.7431C159.275 35.9746 159.227 36.1326 159.227 36.217V38.8233H158.081V34.29H159.227V34.9376C159.281 34.8487 159.343 34.7642 159.41 34.6849V34.6849Z" fill="white"/>
</svg>
